<svg xmlns="http://www.w3.org/2000/svg" width="114" height="34" fill="none" viewBox="0 0 114 34">
    <path fill="#000" d="M12.672 0c1.5 0 2.923.279 4.27.837 1.33.558 2.51 1.321 3.504 2.275.995.955 1.79 2.07 2.372 3.362.582 1.278.872 2.643.872 4.096 0 1.44-.29 2.82-.872 4.111-.582 1.292-1.377 2.408-2.372 3.362-.995.94-2.158 1.703-3.505 2.276-1.331.572-2.754.851-4.27.851H5.22v12.156H0V0h12.672zm0 16.399c.765 0 1.5-.147 2.188-.455.689-.294 1.3-.72 1.837-1.248.535-.529.964-1.16 1.285-1.865.306-.704.474-1.468.474-2.275 0-.778-.153-1.512-.474-2.217-.321-.705-.735-1.321-1.285-1.85-.536-.528-1.148-.94-1.837-1.263-.689-.322-1.423-.484-2.188-.484H5.219v11.642h7.453v.015zM58.4 33.312h-4.96V0h4.96v33.312zM86.161 26.44c-.413.984-.934 1.91-1.561 2.76-.627.867-1.377 1.616-2.265 2.276-.872.661-1.898 1.16-3.06 1.542-1.164.367-2.45.558-3.888.558-1.653 0-3.198-.294-4.622-.896-1.438-.587-2.693-1.424-3.764-2.51-1.072-1.072-1.913-2.35-2.526-3.832-.612-1.483-.918-3.127-.918-4.933 0-1.791.306-3.42.918-4.904.613-1.482 1.439-2.76 2.48-3.831 1.04-1.072 2.265-1.909 3.688-2.51 1.423-.603 2.908-.911 4.5-.911 1.576 0 3.075.308 4.498.91 1.424.602 2.648 1.439 3.689 2.51 1.04 1.072 1.867 2.35 2.479 3.832.612 1.483.918 3.113.918 4.904 0 .279-.015.543-.061.807-.03.265-.076.5-.107.69-.03.235-.077.441-.107.617H68.776c.076.734.29 1.439.673 2.114.383.676.842 1.263 1.408 1.762.566.514 1.24.91 2.035 1.218.796.309 1.623.456 2.51.456 1.5 0 2.71-.309 3.597-.925.887-.617 1.53-1.19 1.928-1.703h5.234zM75.127 13.742c-1.653 0-3.046.544-4.178 1.615-1.133 1.072-1.867 2.481-2.173 4.214h13.253c-.29-1.718-1.025-3.127-2.188-4.214-1.179-1.071-2.755-1.614-4.714-1.614zM103.684 9.249c1.362 0 2.647.264 3.856.778s2.265 1.219 3.168 2.114c.903.896 1.607 1.982 2.127 3.245.521 1.262.781 2.657.781 4.199v13.727h-4.958V19.585c0-.779-.154-1.513-.475-2.217-.321-.705-.734-1.322-1.285-1.865-.536-.528-1.164-.954-1.852-1.277-.704-.323-1.439-.485-2.204-.485-.842 0-1.637.162-2.372.485-.735.323-1.377.749-1.928 1.277-.551.529-.98 1.145-1.286 1.85-.321.69-.474 1.439-.474 2.232v13.727h-4.959V9.499h3.581l1.102 2.407c.49-.499 1.056-.94 1.699-1.336.597-.308 1.331-.602 2.234-.895.919-.28 1.99-.426 3.245-.426z"/>
    <path fill="#FE5B02" d="M36.928 9.264c-1.882 0-3.428 1.468-3.428 3.288 0 1.806 1.53 3.289 3.428 3.289 1.883 0 3.428-1.468 3.428-3.289 0-1.82-1.53-3.288-3.428-3.288zM36.928 26.998c-1.882 0-3.428 1.469-3.428 3.29 0 1.805 1.53 3.288 3.428 3.288 1.883 0 3.428-1.468 3.428-3.289 0-1.82-1.53-3.288-3.428-3.288zM44.902 22.623c-1.883 0-3.428 1.469-3.428 3.29 0 1.805 1.53 3.288 3.428 3.288 1.882 0 3.428-1.468 3.428-3.289 0-1.82-1.546-3.288-3.428-3.288zM44.902 20.245c1.882 0 3.428-1.468 3.428-3.288 0-1.806-1.53-3.289-3.428-3.289-1.883 0-3.428 1.468-3.428 3.289 0 1.82 1.545 3.288 3.428 3.288zM28.955 22.623c-1.882 0-3.428 1.469-3.428 3.29 0 1.805 1.53 3.288 3.428 3.288 1.882 0 3.428-1.468 3.428-3.289 0-1.82-1.53-3.288-3.428-3.288zM28.955 13.668c-1.882 0-3.428 1.468-3.428 3.289 0 1.805 1.53 3.288 3.428 3.288 1.882 0 3.428-1.468 3.428-3.288 0-1.806-1.53-3.289-3.428-3.289z"/>
</svg>
